<svg id="visual" viewBox="0 0 1920 1080" width="1920" height="1080" xmlns="http://www.w3.org/2000/svg" xmlns:xlink="http://www.w3.org/1999/xlink" version="1.1">
  <path d="M0 782L274 645L549 701L823 686L1097 786L1371 690L1646 679L1920 682L1920 1081L1646 1081L1371 1081L1097 1081L823 1081L549 1081L274 1081L0 1081Z" fill="#f5730a"></path>
  <path d="M0 863L274 795L549 728L823 768L1097 743L1371 714L1646 851L1920 738L1920 1081L1646 1081L1371 1081L1097 1081L823 1081L549 1081L274 1081L0 1081Z" fill="#da5b09"></path>
  <path d="M0 798L274 882L549 818L823 852L1097 835L1371 885L1646 831L1920 800L1920 1081L1646 1081L1371 1081L1097 1081L823 1081L549 1081L274 1081L0 1081Z" fill="#be4407"></path>
  <path d="M0 896L274 900L549 918L823 974L1097 908L1371 953L1646 911L1920 866L1920 1081L1646 1081L1371 1081L1097 1081L823 1081L549 1081L274 1081L0 1081Z" fill="#a32d04"></path>
  <path d="M0 954L274 997L549 956L823 951L1097 1016L1371 958L1646 1029L1920 1008L1920 1081L1646 1081L1371 1081L1097 1081L823 1081L549 1081L274 1081L0 1081Z" fill="#871400"></path>
</svg>