<svg id="visual" viewBox="0 0 1920 1080" width="1920" height="1080" xmlns="http://www.w3.org/2000/svg" xmlns:xlink="http://www.w3.org/1999/xlink" version="1.1">
  <path d="M0 311L64 309.5C128 308 256 305 384 319.5C512 334 640 366 768 383C896 400 1024 402 1152 386C1280 370 1408 336 1536 332.8C1664 329.7 1792 357.3 1856 371.2L1920 385L1920 1081L1856 1081C1792 1081 1664 1081 1536 1081C1408 1081 1280 1081 1152 1081C1024 1081 896 1081 768 1081C640 1081 512 1081 384 1081C256 1081 128 1081 64 1081L0 1081Z" fill="#746ED4"></path>
  <path d="M0 496L64 495.2C128 494.3 256 492.7 384 491C512 489.3 640 487.7 768 485.5C896 483.3 1024 480.7 1152 486.7C1280 492.7 1408 507.3 1536 502.5C1664 497.7 1792 473.3 1856 461.2L1920 449L1920 1081L1856 1081C1792 1081 1664 1081 1536 1081C1408 1081 1280 1081 1152 1081C1024 1081 896 1081 768 1081C640 1081 512 1081 384 1081C256 1081 128 1081 64 1081L0 1081Z" fill="#544EB5"></path>
  <path d="M0 585L64 580.3C128 575.7 256 566.3 384 568.8C512 571.3 640 585.7 768 581.3C896 577 1024 554 1152 544C1280 534 1408 537 1536 549.7C1664 562.3 1792 584.7 1856 595.8L1920 607L1920 1081L1856 1081C1792 1081 1664 1081 1536 1081C1408 1081 1280 1081 1152 1081C1024 1081 896 1081 768 1081C640 1081 512 1081 384 1081C256 1081 128 1081 64 1081L0 1081Z" fill="#363190"></path>
  <path d="M0 724L64 719.8C128 715.7 256 707.3 384 704.7C512 702 640 705 768 701C896 697 1024 686 1152 684.5C1280 683 1408 691 1536 689.7C1664 688.3 1792 677.7 1856 672.3L1920 667L1920 1081L1856 1081C1792 1081 1664 1081 1536 1081C1408 1081 1280 1081 1152 1081C1024 1081 896 1081 768 1081C640 1081 512 1081 384 1081C256 1081 128 1081 64 1081L0 1081Z" fill="#1F1A70"></path>
  <path d="M0 811L64 809.5C128 808 256 805 384 803.8C512 802.7 640 803.3 768 804.2C896 805 1024 806 1152 803.8C1280 801.7 1408 796.3 1536 792.3C1664 788.3 1792 785.7 1856 784.3L1920 783L1920 1081L1856 1081C1792 1081 1664 1081 1536 1081C1408 1081 1280 1081 1152 1081C1024 1081 896 1081 768 1081C640 1081 512 1081 384 1081C256 1081 128 1081 64 1081L0 1081Z" fill="#0F0B52"></path>
  <path d="M0 909L64 908C128 907 256 905 384 904.7C512 904.3 640 905.7 768 911.5C896 917.3 1024 927.7 1152 926.8C1280 926 1408 914 1536 912.7C1664 911.3 1792 920.7 1856 925.3L1920 930L1920 1081L1856 1081C1792 1081 1664 1081 1536 1081C1408 1081 1280 1081 1152 1081C1024 1081 896 1081 768 1081C640 1081 512 1081 384 1081C256 1081 128 1081 64 1081L0 1081Z" fill="#030032"></path>
</svg>